%FSLAX23Y23*%
%MOIN*%
G70*
G01*
G75*
G04 Layer_Physical_Order=1*
G04 Layer_Color=255*
G04:AMPARAMS|DCode=10|XSize=71mil|YSize=118mil|CornerRadius=0mil|HoleSize=0mil|Usage=FLASHONLY|Rotation=0.000|XOffset=0mil|YOffset=0mil|HoleType=Round|Shape=Octagon|*
%AMOCTAGOND10*
4,1,8,-0.018,0.059,0.018,0.059,0.035,0.041,0.035,-0.041,0.018,-0.059,-0.018,-0.059,-0.035,-0.041,-0.035,0.041,-0.018,0.059,0.0*
%
%ADD10OCTAGOND10*%

%ADD11R,0.020X0.047*%
%ADD12R,0.020X0.063*%
%ADD13R,0.031X0.035*%
%ADD14R,0.035X0.031*%
%ADD15R,0.051X0.106*%
%ADD16R,0.091X0.091*%
%ADD17R,0.106X0.051*%
%ADD18R,0.059X0.118*%
%ADD19R,0.039X0.118*%
%ADD20O,0.087X0.024*%
%ADD21C,0.010*%
%ADD22C,0.060*%
%ADD23C,0.039*%
%ADD24C,0.050*%
%ADD25C,0.031*%
%ADD26C,0.024*%
G36*
X1405Y1100D02*
X1395Y1090D01*
Y-65D01*
X-45D01*
Y1110D01*
X1395D01*
X1405Y1100D01*
D02*
G37*
%LPC*%
G36*
X1365Y1071D02*
X0D01*
X-8Y1068D01*
X-11Y1060D01*
Y0D01*
X-8Y-8D01*
X0Y-11D01*
X1365D01*
X1373Y-8D01*
X1376Y0D01*
Y1060D01*
X1373Y1068D01*
X1365Y1071D01*
D02*
G37*
%LPD*%
G36*
X1354Y11D02*
X993D01*
X991Y15D01*
X1010Y35D01*
Y68D01*
X1021D01*
X1021Y68D01*
X1029Y71D01*
X1115Y157D01*
X1143D01*
Y198D01*
X1107D01*
X1106Y203D01*
X1115Y212D01*
X1115D01*
Y233D01*
Y253D01*
X1097D01*
Y247D01*
X1093Y245D01*
X1063Y275D01*
Y275D01*
X1048D01*
Y257D01*
X1050D01*
X1082Y225D01*
X1082Y225D01*
X1086Y223D01*
X1089Y222D01*
X1090Y217D01*
X1060Y188D01*
X1044D01*
Y206D01*
X1034D01*
Y177D01*
Y148D01*
X1044D01*
Y166D01*
X1064D01*
X1064Y166D01*
X1072Y169D01*
X1093Y190D01*
X1097Y188D01*
Y170D01*
X1017Y89D01*
X1010D01*
Y122D01*
X990Y143D01*
X985D01*
Y206D01*
X955D01*
Y143D01*
X950D01*
X930Y122D01*
Y121D01*
X925Y119D01*
X900Y144D01*
X902Y148D01*
X926D01*
Y203D01*
X980Y257D01*
X1008D01*
Y303D01*
X980D01*
X958Y324D01*
Y345D01*
X985Y372D01*
X1008D01*
Y418D01*
X967D01*
Y406D01*
X955D01*
X951Y416D01*
X935Y422D01*
X919Y416D01*
X913Y400D01*
X919Y384D01*
X935Y378D01*
X951Y384D01*
X951Y384D01*
X960D01*
X962Y380D01*
X945Y363D01*
X917D01*
Y317D01*
X935D01*
X967Y285D01*
Y275D01*
X903Y211D01*
X901Y206D01*
X896D01*
Y154D01*
X891Y152D01*
X825Y219D01*
Y304D01*
X725D01*
Y203D01*
X810D01*
X930Y84D01*
Y35D01*
X949Y15D01*
X947Y11D01*
X655D01*
Y11D01*
Y14D01*
X655Y14D01*
X655Y14D01*
X655D01*
Y142D01*
X586D01*
Y14D01*
X586Y14D01*
X586D01*
X586Y14D01*
X583Y11D01*
X324D01*
Y11D01*
Y14D01*
X324Y14D01*
X324Y14D01*
X324D01*
Y142D01*
X255D01*
Y14D01*
X255Y14D01*
X255D01*
X255Y14D01*
X252Y11D01*
X11D01*
Y1049D01*
X1354D01*
Y11D01*
D02*
G37*
%LPC*%
G36*
X260Y421D02*
X238Y412D01*
X229Y390D01*
X260D01*
Y421D01*
D02*
G37*
G36*
X442Y430D02*
X427D01*
Y430D01*
X393Y396D01*
X298D01*
X292Y412D01*
X270Y421D01*
Y385D01*
Y349D01*
X282Y354D01*
X352Y284D01*
Y280D01*
X371D01*
Y339D01*
X352D01*
Y322D01*
X347Y320D01*
X297Y370D01*
X299Y374D01*
X397D01*
X397Y374D01*
X405Y377D01*
X440Y412D01*
X442D01*
Y430D01*
D02*
G37*
G36*
X265Y623D02*
X238Y612D01*
X227Y585D01*
X238Y558D01*
X265Y547D01*
X292Y558D01*
X298Y574D01*
X338D01*
X342Y570D01*
Y497D01*
X362D01*
Y462D01*
X352Y458D01*
X343Y435D01*
X352Y412D01*
X375Y403D01*
X398Y412D01*
X407Y435D01*
X398Y458D01*
X384Y464D01*
Y497D01*
X404D01*
Y613D01*
X342D01*
Y596D01*
X298D01*
X292Y612D01*
X265Y623D01*
D02*
G37*
G36*
X1290Y397D02*
X1267Y388D01*
X1258Y365D01*
X1263Y353D01*
X1242Y333D01*
X1239Y325D01*
X1239Y325D01*
Y298D01*
X1192D01*
Y236D01*
X1308D01*
Y298D01*
X1261D01*
Y321D01*
X1278Y338D01*
X1290Y333D01*
X1313Y342D01*
X1322Y365D01*
X1313Y388D01*
X1290Y397D01*
D02*
G37*
G36*
X558Y339D02*
X509D01*
Y211D01*
X558D01*
Y284D01*
X573Y299D01*
X587D01*
X589Y294D01*
X605Y288D01*
X621Y294D01*
X627Y310D01*
X621Y326D01*
X605Y332D01*
X589Y326D01*
X587Y321D01*
X569D01*
X569Y321D01*
X563Y319D01*
X563Y318D01*
X558Y321D01*
Y339D01*
D02*
G37*
G36*
X260Y380D02*
X229D01*
X234Y369D01*
X93Y228D01*
X62D01*
Y175D01*
X124D01*
Y228D01*
X124Y228D01*
X124D01*
X123Y228D01*
X249Y354D01*
X260Y349D01*
Y380D01*
D02*
G37*
G36*
X952Y485D02*
X926D01*
Y432D01*
X952D01*
Y485D01*
D02*
G37*
G36*
X482Y550D02*
X456D01*
Y540D01*
X440Y523D01*
X437Y515D01*
X437Y515D01*
Y458D01*
X427D01*
Y440D01*
X468D01*
Y458D01*
X458D01*
Y497D01*
X482D01*
Y550D01*
D02*
G37*
G36*
X106Y548D02*
X68Y533D01*
X52Y495D01*
X68Y457D01*
X106Y442D01*
X143Y457D01*
X159Y495D01*
X143Y533D01*
X106Y548D01*
D02*
G37*
G36*
X1190Y417D02*
X1174Y411D01*
X1171Y403D01*
X1148D01*
Y413D01*
X1102D01*
Y372D01*
X1148D01*
Y382D01*
X1173D01*
X1174Y379D01*
X1190Y373D01*
X1206Y379D01*
X1212Y395D01*
X1206Y411D01*
X1190Y417D01*
D02*
G37*
G36*
X468Y430D02*
X452D01*
Y412D01*
X468D01*
Y430D01*
D02*
G37*
G36*
X1291Y538D02*
X1253Y523D01*
X1237Y485D01*
X1253Y447D01*
X1291Y432D01*
X1328Y447D01*
X1344Y485D01*
X1328Y523D01*
X1291Y538D01*
D02*
G37*
G36*
X401Y339D02*
X381D01*
Y280D01*
X401D01*
Y339D01*
D02*
G37*
G36*
X124Y165D02*
X98D01*
Y112D01*
X124D01*
Y165D01*
D02*
G37*
G36*
X1148Y358D02*
X1102D01*
Y317D01*
X1114D01*
Y278D01*
X1114Y278D01*
X1117Y270D01*
X1130Y258D01*
X1128Y253D01*
X1125D01*
Y238D01*
X1143D01*
Y238D01*
X1147Y240D01*
X1199Y188D01*
X1198Y184D01*
X1192D01*
Y122D01*
X1308D01*
Y184D01*
X1235D01*
X1136Y282D01*
Y317D01*
X1148D01*
Y358D01*
D02*
G37*
G36*
X1024Y172D02*
X1014D01*
Y148D01*
X1024D01*
Y172D01*
D02*
G37*
G36*
X1196Y91D02*
X1171Y81D01*
X1160Y55D01*
X1171Y29D01*
X1196Y19D01*
X1222Y29D01*
X1233Y55D01*
X1222Y81D01*
X1196Y91D01*
D02*
G37*
G36*
X186Y96D02*
X161Y86D01*
X150Y60D01*
X161Y34D01*
X186Y24D01*
X212Y34D01*
X223Y60D01*
X212Y86D01*
X186Y96D01*
D02*
G37*
G36*
X88Y165D02*
X62D01*
Y112D01*
X88D01*
Y165D01*
D02*
G37*
G36*
X401Y270D02*
X381D01*
Y211D01*
X401D01*
Y270D01*
D02*
G37*
G36*
X1143Y228D02*
X1125D01*
Y212D01*
X1143D01*
Y228D01*
D02*
G37*
G36*
X1038Y275D02*
X1022D01*
Y257D01*
X1038D01*
Y275D01*
D02*
G37*
G36*
X480Y339D02*
X430D01*
Y211D01*
X444D01*
Y176D01*
X238D01*
Y228D01*
X176D01*
Y112D01*
X238D01*
Y154D01*
X682D01*
X725Y111D01*
Y26D01*
X825D01*
Y127D01*
X740D01*
X694Y173D01*
X686Y176D01*
X686Y176D01*
X466D01*
Y211D01*
X480D01*
Y339D01*
D02*
G37*
G36*
X1024Y206D02*
X1014D01*
Y182D01*
X1024D01*
Y206D01*
D02*
G37*
G36*
X371Y270D02*
X352D01*
Y211D01*
X371D01*
Y270D01*
D02*
G37*
G36*
X540Y728D02*
X522D01*
Y713D01*
X498D01*
Y723D01*
X480D01*
Y702D01*
Y682D01*
X498D01*
Y692D01*
X522D01*
Y687D01*
X534D01*
Y617D01*
X522Y606D01*
X518Y607D01*
Y613D01*
X492D01*
Y560D01*
X518D01*
Y570D01*
X527Y580D01*
X576D01*
X580Y569D01*
X602Y591D01*
X580Y612D01*
X576Y602D01*
X556D01*
X553Y606D01*
X554Y609D01*
X556Y613D01*
X556Y613D01*
Y687D01*
X568D01*
Y702D01*
X545D01*
Y707D01*
X540D01*
Y728D01*
D02*
G37*
G36*
X1328Y893D02*
X1287D01*
Y847D01*
X1297D01*
Y818D01*
X1287D01*
Y772D01*
X1328D01*
Y818D01*
X1318D01*
Y847D01*
X1328D01*
Y893D01*
D02*
G37*
G36*
X193Y833D02*
X140D01*
Y807D01*
X150D01*
X263Y695D01*
X263Y695D01*
X267Y693D01*
X270Y692D01*
X270Y692D01*
X452D01*
Y682D01*
X470D01*
Y702D01*
Y723D01*
X452D01*
Y713D01*
X386D01*
X384Y717D01*
X388Y729D01*
X457D01*
X457Y729D01*
X465Y732D01*
X470Y737D01*
X498D01*
Y765D01*
X518Y785D01*
X522Y783D01*
Y783D01*
X522D01*
Y742D01*
X568D01*
Y752D01*
X597D01*
Y742D01*
X643D01*
Y752D01*
X700D01*
X701Y750D01*
X701Y750D01*
X701D01*
X706Y737D01*
X719Y732D01*
X782D01*
X795Y737D01*
X800Y750D01*
X795Y763D01*
X782Y768D01*
X748D01*
X746Y770D01*
X738Y773D01*
X738Y773D01*
X643D01*
Y783D01*
X597D01*
Y773D01*
X568D01*
Y783D01*
X523D01*
X522Y785D01*
X525Y789D01*
X705D01*
X706Y787D01*
X719Y782D01*
X782D01*
X795Y787D01*
X800Y800D01*
X795Y813D01*
X782Y818D01*
X719D01*
X706Y813D01*
X705Y811D01*
X517D01*
X517Y811D01*
X510Y808D01*
X480Y778D01*
X452D01*
Y751D01*
X388D01*
X382Y767D01*
X355Y778D01*
X328Y767D01*
X317Y740D01*
X326Y717D01*
X324Y713D01*
X275D01*
X186Y803D01*
X187Y807D01*
X193D01*
Y833D01*
D02*
G37*
G36*
X568Y728D02*
X550D01*
Y712D01*
X568D01*
Y728D01*
D02*
G37*
G36*
X746Y668D02*
X719D01*
X706Y663D01*
X703Y655D01*
X746D01*
Y668D01*
D02*
G37*
G36*
X643Y728D02*
X597D01*
Y687D01*
X643D01*
Y697D01*
X702D01*
X706Y687D01*
X719Y682D01*
X782D01*
X795Y687D01*
X800Y700D01*
X795Y713D01*
X782Y718D01*
X743D01*
X743Y718D01*
X743Y718D01*
X643D01*
Y728D01*
D02*
G37*
G36*
X971Y718D02*
X908D01*
X895Y713D01*
X894Y711D01*
X860D01*
X860Y711D01*
X855Y709D01*
X852Y708D01*
X852Y708D01*
X802Y657D01*
X797Y658D01*
X795Y663D01*
X782Y668D01*
X756D01*
Y650D01*
X751D01*
Y645D01*
X703D01*
X706Y637D01*
X710Y636D01*
X709Y631D01*
X675D01*
X667Y628D01*
X667Y628D01*
X645Y606D01*
X641Y607D01*
X638Y612D01*
X613Y587D01*
X588Y562D01*
X609Y553D01*
X625Y559D01*
X655Y530D01*
X655Y530D01*
X657Y529D01*
X662Y527D01*
Y517D01*
X680D01*
Y538D01*
Y558D01*
X662D01*
X662Y558D01*
Y558D01*
X659Y557D01*
X641Y575D01*
X643Y580D01*
X643D01*
D01*
X646D01*
X646Y580D01*
X646Y580D01*
X653Y583D01*
X679Y609D01*
X700D01*
X703Y605D01*
X701Y600D01*
X706Y587D01*
X719Y582D01*
X782D01*
X795Y587D01*
X800Y600D01*
X795Y613D01*
X794Y613D01*
X793Y618D01*
X864Y689D01*
X894D01*
X895Y687D01*
X908Y682D01*
X971D01*
X984Y687D01*
X985Y689D01*
X998D01*
X1004Y674D01*
X1020Y668D01*
X1036Y674D01*
X1042Y690D01*
X1036Y706D01*
X1020Y712D01*
X1013Y710D01*
X1010Y711D01*
X1010Y711D01*
X985D01*
X984Y713D01*
X971Y718D01*
D02*
G37*
G36*
X193Y869D02*
X140D01*
Y843D01*
X193D01*
Y869D01*
D02*
G37*
G36*
X648Y948D02*
X607D01*
Y902D01*
X635D01*
X645Y892D01*
X645Y892D01*
X647Y891D01*
X653Y889D01*
X653Y889D01*
X705D01*
X706Y887D01*
X719Y882D01*
X782D01*
X795Y887D01*
X800Y900D01*
X795Y913D01*
X782Y918D01*
X719D01*
X706Y913D01*
X705Y911D01*
X657D01*
X648Y920D01*
Y948D01*
D02*
G37*
G36*
X1268Y1011D02*
X1268Y1011D01*
X183D01*
X183Y1011D01*
X178Y1009D01*
X175Y1008D01*
X175Y1008D01*
X150Y983D01*
X77D01*
Y921D01*
X193D01*
Y983D01*
X187D01*
X186Y985D01*
X189Y989D01*
X218D01*
X219Y984D01*
X211Y981D01*
X200Y955D01*
X211Y929D01*
X236Y919D01*
X245Y922D01*
X248Y918D01*
X236Y906D01*
X55D01*
X52Y905D01*
X50Y906D01*
X42Y903D01*
X39Y895D01*
Y590D01*
X39Y590D01*
X39D01*
X42Y582D01*
X50Y579D01*
X156D01*
X234Y501D01*
X227Y485D01*
X238Y458D01*
X265Y447D01*
X292Y458D01*
X303Y485D01*
X292Y512D01*
X265Y523D01*
X249Y516D01*
X168Y598D01*
X160Y601D01*
X160Y601D01*
X61D01*
Y884D01*
X240D01*
X240Y884D01*
X248Y887D01*
X320Y960D01*
X324Y957D01*
X317Y940D01*
X328Y913D01*
X355Y902D01*
X382Y913D01*
X388Y929D01*
X473D01*
X547Y855D01*
Y827D01*
X588D01*
Y873D01*
X560D01*
X512Y920D01*
X515Y925D01*
X520Y923D01*
X525Y925D01*
X532Y917D01*
X532Y917D01*
X540Y914D01*
X552D01*
Y902D01*
X593D01*
Y948D01*
X552D01*
Y936D01*
X544D01*
X540Y940D01*
X542Y945D01*
X536Y961D01*
X528Y964D01*
X529Y969D01*
X681D01*
X702Y948D01*
X706Y937D01*
X719Y932D01*
X782D01*
X795Y937D01*
X800Y950D01*
X795Y963D01*
X782Y968D01*
X719D01*
X714Y966D01*
X696Y985D01*
X698Y989D01*
X987D01*
X989Y985D01*
X972Y968D01*
X971Y968D01*
X908D01*
X895Y963D01*
X890Y950D01*
X895Y937D01*
X908Y932D01*
X971D01*
X984Y937D01*
X989Y950D01*
X988Y953D01*
X1009Y974D01*
X1088D01*
X1090Y970D01*
X1088Y965D01*
X1096Y946D01*
X1115Y938D01*
X1134Y946D01*
X1142Y965D01*
X1134Y984D01*
X1133Y984D01*
X1134Y989D01*
X1178D01*
X1179Y984D01*
X1171Y981D01*
X1160Y955D01*
X1171Y929D01*
X1196Y919D01*
X1222Y929D01*
X1227Y941D01*
X1232Y940D01*
Y937D01*
X1242D01*
Y893D01*
X1232D01*
Y881D01*
X1122D01*
X1063Y940D01*
Y968D01*
X1017D01*
Y940D01*
X989Y912D01*
X984Y913D01*
X984Y913D01*
X971Y918D01*
X908D01*
X895Y913D01*
X890Y900D01*
X895Y887D01*
X908Y882D01*
X971D01*
X984Y887D01*
X985Y889D01*
X992D01*
X992Y889D01*
X1000Y892D01*
X1013Y905D01*
X1017Y903D01*
Y872D01*
X1045D01*
X1057Y860D01*
X1057Y860D01*
D01*
X1055Y856D01*
X987D01*
X984Y863D01*
X971Y868D01*
X908D01*
X895Y863D01*
X890Y850D01*
X895Y837D01*
X908Y832D01*
X971D01*
X977Y834D01*
X1057D01*
Y826D01*
X1045D01*
X1045Y826D01*
X1037Y823D01*
X1026Y811D01*
X985D01*
X984Y813D01*
X971Y818D01*
X908D01*
X895Y813D01*
X890Y800D01*
X895Y787D01*
X908Y782D01*
X971D01*
X984Y787D01*
X985Y789D01*
X1030D01*
X1030Y789D01*
X1038Y792D01*
X1049Y804D01*
X1057D01*
Y780D01*
X1038Y761D01*
X985D01*
X984Y763D01*
X971Y768D01*
X908D01*
X895Y763D01*
X890Y750D01*
X895Y737D01*
X908Y732D01*
X971D01*
X984Y737D01*
X985Y739D01*
X1042D01*
X1042Y739D01*
X1050Y742D01*
X1062Y754D01*
X1067Y752D01*
Y718D01*
X1057D01*
Y672D01*
X1088D01*
X1090Y668D01*
X1070Y648D01*
X1067Y640D01*
X1067Y640D01*
X1067D01*
X1062Y638D01*
X1057D01*
Y592D01*
X1098D01*
Y638D01*
X1097D01*
X1095Y642D01*
X1125Y672D01*
X1148D01*
X1150Y668D01*
X1125Y643D01*
X1123Y638D01*
X1112D01*
Y592D01*
X1153D01*
Y604D01*
X1180D01*
X1180Y604D01*
X1183Y605D01*
X1190Y603D01*
X1206Y609D01*
X1212Y625D01*
X1206Y641D01*
X1190Y647D01*
X1174Y641D01*
X1168Y626D01*
X1153D01*
Y638D01*
X1153Y638D01*
X1153D01*
X1153Y640D01*
X1195Y682D01*
X1223D01*
Y723D01*
X1177D01*
Y695D01*
X1158Y676D01*
X1153Y678D01*
Y718D01*
X1143D01*
Y752D01*
X1148Y754D01*
X1152Y750D01*
X1152Y750D01*
X1155Y749D01*
X1160Y747D01*
X1160Y747D01*
X1177D01*
Y737D01*
X1223D01*
Y778D01*
X1177D01*
Y768D01*
X1164D01*
X1153Y780D01*
Y808D01*
X1125D01*
X1115Y818D01*
X1117Y822D01*
X1153D01*
Y834D01*
X1166D01*
X1170Y830D01*
X1168Y825D01*
X1174Y809D01*
X1190Y803D01*
X1206Y809D01*
X1212Y825D01*
X1206Y841D01*
X1190Y847D01*
X1185Y845D01*
X1178Y853D01*
X1174Y854D01*
X1175Y859D01*
X1232D01*
Y847D01*
X1242D01*
Y818D01*
X1232D01*
Y772D01*
X1242D01*
Y723D01*
X1232D01*
Y677D01*
X1273D01*
Y723D01*
X1263D01*
Y772D01*
X1273D01*
Y818D01*
X1263D01*
Y847D01*
X1273D01*
Y893D01*
X1263D01*
Y937D01*
X1273D01*
Y973D01*
X1278Y974D01*
X1287Y965D01*
Y937D01*
X1328D01*
Y983D01*
X1300D01*
X1275Y1008D01*
X1268Y1011D01*
D02*
G37*
G36*
X130Y869D02*
X77D01*
Y843D01*
X130D01*
Y869D01*
D02*
G37*
G36*
X255Y878D02*
X228Y867D01*
X217Y840D01*
X228Y813D01*
X255Y802D01*
X282Y813D01*
X293Y840D01*
X282Y867D01*
X255Y878D01*
D02*
G37*
G36*
X130Y833D02*
X77D01*
Y807D01*
X130D01*
Y833D01*
D02*
G37*
G36*
X643Y873D02*
X602D01*
Y827D01*
X643D01*
Y839D01*
X705D01*
X706Y837D01*
X719Y832D01*
X782D01*
X795Y837D01*
X800Y850D01*
X795Y863D01*
X782Y868D01*
X719D01*
X706Y863D01*
X705Y861D01*
X643D01*
Y873D01*
D02*
G37*
G36*
X708Y533D02*
X690D01*
Y517D01*
X708D01*
Y533D01*
D02*
G37*
G36*
X1128Y563D02*
X1112D01*
Y545D01*
X1128D01*
Y563D01*
D02*
G37*
G36*
X482Y613D02*
X456D01*
Y560D01*
X482D01*
Y613D01*
D02*
G37*
G36*
X750Y542D02*
X734Y536D01*
X728Y520D01*
X730Y515D01*
X712Y498D01*
X708Y500D01*
Y503D01*
X662D01*
Y493D01*
X642D01*
X635Y490D01*
X635Y490D01*
X625Y481D01*
X609Y487D01*
X583Y476D01*
X571Y449D01*
X571Y449D01*
X571Y449D01*
X569Y446D01*
X523D01*
Y458D01*
X482D01*
Y412D01*
X523D01*
Y424D01*
X582D01*
X583Y423D01*
X609Y411D01*
X636Y423D01*
X647Y449D01*
X641Y465D01*
X647Y472D01*
X662D01*
Y462D01*
X708D01*
Y472D01*
X712D01*
X712Y472D01*
X718Y474D01*
X722Y470D01*
X713Y449D01*
X724Y423D01*
X740Y416D01*
Y393D01*
X732D01*
Y347D01*
X773D01*
Y393D01*
X762D01*
Y416D01*
X777Y423D01*
X789Y449D01*
X777Y476D01*
X751Y487D01*
X731Y479D01*
X729Y483D01*
X745Y500D01*
X750Y498D01*
X766Y504D01*
X772Y520D01*
X766Y536D01*
X750Y542D01*
D02*
G37*
G36*
X1150Y475D02*
X1139D01*
X1142Y467D01*
X1150Y464D01*
Y475D01*
D02*
G37*
G36*
X1171D02*
X1160D01*
Y464D01*
X1168Y467D01*
X1171Y475D01*
D02*
G37*
G36*
X518Y550D02*
X492D01*
Y497D01*
X518D01*
Y550D01*
D02*
G37*
G36*
X971Y668D02*
X908D01*
X895Y663D01*
X890Y650D01*
X895Y637D01*
X908Y632D01*
X970D01*
X984Y618D01*
X981Y614D01*
X971Y618D01*
X908D01*
X895Y613D01*
X890Y600D01*
X895Y587D01*
X908Y582D01*
X942D01*
X971Y553D01*
X969Y548D01*
X962D01*
Y490D01*
Y432D01*
X988D01*
Y449D01*
X1001D01*
X1002Y447D01*
X1010Y444D01*
Y460D01*
X1020D01*
Y444D01*
X1028Y447D01*
X1032Y444D01*
Y418D01*
X1022D01*
Y372D01*
X1060D01*
X1061Y371D01*
X1061Y371D01*
X1062Y368D01*
X1035Y340D01*
X1032Y333D01*
X1032Y333D01*
Y303D01*
X1022D01*
Y285D01*
X1063D01*
Y303D01*
X1053D01*
Y328D01*
X1093Y367D01*
X1093Y367D01*
X1096Y375D01*
Y456D01*
X1133Y492D01*
X1139Y486D01*
X1139Y485D01*
X1171D01*
X1168Y493D01*
X1159Y497D01*
X1143Y512D01*
Y517D01*
X1153D01*
Y529D01*
X1182D01*
X1182Y529D01*
X1190Y532D01*
X1245Y587D01*
X1247D01*
Y605D01*
X1232D01*
Y605D01*
X1178Y551D01*
X1153D01*
Y563D01*
X1138D01*
Y540D01*
X1133D01*
Y535D01*
X1112D01*
Y517D01*
X1122D01*
Y512D01*
X1077Y468D01*
X1074Y460D01*
X1074Y460D01*
Y379D01*
X1068Y373D01*
X1064Y375D01*
X1064Y375D01*
X1063Y375D01*
Y418D01*
X1053D01*
Y497D01*
X1053Y497D01*
X1051Y502D01*
X1050Y505D01*
X1050Y505D01*
X976Y579D01*
X977Y584D01*
X984Y587D01*
X989Y600D01*
X985Y610D01*
X989Y613D01*
X1057Y545D01*
Y517D01*
X1098D01*
Y563D01*
X1070D01*
X987Y645D01*
X989Y650D01*
X984Y663D01*
X971Y668D01*
D02*
G37*
G36*
X1247Y633D02*
X1232D01*
Y615D01*
X1247D01*
Y633D01*
D02*
G37*
G36*
X1273D02*
X1257D01*
Y615D01*
X1273D01*
Y633D01*
D02*
G37*
G36*
X609Y629D02*
X588Y620D01*
X609Y598D01*
X631Y620D01*
X609Y629D01*
D02*
G37*
G36*
X887Y571D02*
X887Y571D01*
X707D01*
X707Y571D01*
X702Y569D01*
X700Y568D01*
X700Y568D01*
X690Y558D01*
X690D01*
Y543D01*
X708D01*
Y545D01*
X712Y549D01*
X812D01*
Y549D01*
Y548D01*
X812Y546D01*
X812Y546D01*
X812D01*
Y475D01*
X800Y462D01*
X797Y455D01*
X797Y455D01*
Y393D01*
X787D01*
Y347D01*
X828D01*
Y359D01*
X848D01*
X862Y345D01*
Y317D01*
X903D01*
Y363D01*
X875D01*
X860Y378D01*
X852Y381D01*
X852Y381D01*
X828D01*
Y393D01*
X818D01*
Y432D01*
X874D01*
Y546D01*
X874Y546D01*
D01*
D01*
X874Y548D01*
D01*
X875Y549D01*
X883D01*
X926Y505D01*
Y495D01*
X952D01*
Y548D01*
X926D01*
Y542D01*
X922Y541D01*
X895Y568D01*
X887Y571D01*
D02*
G37*
G36*
X1273Y605D02*
X1257D01*
Y587D01*
X1273D01*
Y605D01*
D02*
G37*
G36*
X1328Y723D02*
X1287D01*
Y677D01*
X1297D01*
Y633D01*
X1287D01*
Y587D01*
X1328D01*
Y633D01*
X1318D01*
Y677D01*
X1328D01*
Y723D01*
D02*
G37*
%LPD*%
D10*
X970Y79D02*
D03*
D11*
X911Y177D02*
D03*
X1029D02*
D03*
D12*
X970Y169D02*
D03*
D13*
X987Y395D02*
D03*
X1043D02*
D03*
X938Y340D02*
D03*
X882D02*
D03*
X1043Y280D02*
D03*
X987D02*
D03*
X808Y370D02*
D03*
X752D02*
D03*
X1077Y540D02*
D03*
X1133D02*
D03*
X1077Y695D02*
D03*
X1133D02*
D03*
X1133Y785D02*
D03*
X1077D02*
D03*
X1077Y615D02*
D03*
X1133D02*
D03*
X567Y850D02*
D03*
X623D02*
D03*
X1077Y845D02*
D03*
X1133D02*
D03*
X572Y925D02*
D03*
X628D02*
D03*
X1308Y700D02*
D03*
X1252D02*
D03*
X1252Y960D02*
D03*
X1308D02*
D03*
X503Y435D02*
D03*
X447D02*
D03*
X1252Y795D02*
D03*
X1308D02*
D03*
X1308Y870D02*
D03*
X1252D02*
D03*
X1308Y610D02*
D03*
X1252D02*
D03*
D14*
X1120Y177D02*
D03*
Y233D02*
D03*
X620Y763D02*
D03*
Y707D02*
D03*
X545Y707D02*
D03*
Y763D02*
D03*
X1200Y758D02*
D03*
Y702D02*
D03*
X1040Y948D02*
D03*
Y892D02*
D03*
X1125Y393D02*
D03*
Y337D02*
D03*
X475Y702D02*
D03*
Y758D02*
D03*
X685Y538D02*
D03*
Y482D02*
D03*
D15*
X957Y490D02*
D03*
X843D02*
D03*
X487Y555D02*
D03*
X373D02*
D03*
X93Y170D02*
D03*
X207D02*
D03*
D16*
X775Y254D02*
D03*
Y76D02*
D03*
D17*
X135Y838D02*
D03*
Y952D02*
D03*
X1250Y267D02*
D03*
Y153D02*
D03*
D18*
X290Y78D02*
D03*
X620D02*
D03*
D19*
X376Y275D02*
D03*
X455D02*
D03*
X534D02*
D03*
D20*
X939Y600D02*
D03*
Y650D02*
D03*
Y700D02*
D03*
Y750D02*
D03*
Y800D02*
D03*
Y850D02*
D03*
Y900D02*
D03*
Y950D02*
D03*
X751Y600D02*
D03*
Y650D02*
D03*
Y700D02*
D03*
Y750D02*
D03*
Y800D02*
D03*
Y850D02*
D03*
Y900D02*
D03*
Y950D02*
D03*
D21*
X355Y940D02*
X477D01*
X567Y850D01*
X355Y740D02*
X457D01*
X475Y758D01*
X653Y900D02*
X751D01*
X628Y925D02*
X653Y900D01*
X93Y213D02*
X265Y385D01*
X93Y170D02*
Y213D01*
X455Y165D02*
Y275D01*
X212Y165D02*
X455D01*
X686D02*
X775Y76D01*
X455Y165D02*
X686D01*
X266Y385D02*
X376Y275D01*
X397Y385D02*
X447Y435D01*
X266Y385D02*
X397D01*
X447Y435D02*
Y515D01*
X487Y555D01*
X503Y435D02*
X595D01*
X642Y482D02*
X685D01*
X609Y449D02*
X642Y482D01*
X939Y900D02*
X992D01*
X1040Y948D01*
Y892D02*
X1077Y855D01*
X944Y845D02*
X1077D01*
X1077Y695D02*
Y785D01*
X1077Y640D02*
X1133Y695D01*
X1077Y615D02*
Y640D01*
X1133Y615D02*
Y635D01*
X1200Y702D01*
X1133Y695D02*
Y785D01*
X939Y750D02*
X1042D01*
X1077Y785D01*
X1252Y870D02*
X1252Y870D01*
Y795D02*
Y870D01*
Y700D02*
Y795D01*
X1252Y700D02*
X1252Y700D01*
X1308Y610D02*
Y700D01*
X1182Y540D02*
X1252Y610D01*
X1133Y540D02*
X1182D01*
X939Y650D02*
X967D01*
X1077Y540D01*
X1308Y795D02*
Y870D01*
X1160Y758D02*
X1200D01*
X1133Y785D02*
X1133Y785D01*
X1160Y758D01*
X1118Y870D02*
X1252D01*
X1040Y948D02*
X1118Y870D01*
X939Y600D02*
X1043Y497D01*
Y395D02*
Y497D01*
X887Y560D02*
X957Y490D01*
X707Y560D02*
X887D01*
X685Y538D02*
X707Y560D01*
X1090Y233D02*
X1120D01*
X1043Y280D02*
X1090Y233D01*
X1125Y278D02*
Y337D01*
Y278D02*
X1250Y153D01*
X939Y950D02*
X970D01*
X1005Y985D01*
X1095D01*
X1115Y965D01*
X1250Y267D02*
Y325D01*
X1290Y365D01*
X751Y372D02*
Y449D01*
X808Y370D02*
Y455D01*
X843Y490D01*
X662Y538D02*
X685D01*
X609Y591D02*
X662Y538D01*
X1252Y870D02*
Y960D01*
X1268Y1000D02*
X1308Y960D01*
X183Y1000D02*
X1268D01*
X135Y952D02*
X183Y1000D01*
X135Y838D02*
X270Y702D01*
X475D01*
X808Y370D02*
X852D01*
X882Y340D01*
X938D02*
X987Y390D01*
Y395D01*
X938Y330D02*
Y340D01*
Y330D02*
X987Y280D01*
X1029Y177D02*
X1064D01*
X1120Y233D01*
X970Y79D02*
Y169D01*
X1021Y79D02*
X1120Y177D01*
X970Y79D02*
X1021D01*
X911Y177D02*
Y204D01*
X987Y280D01*
X775Y254D02*
X950Y79D01*
X970D01*
X1043Y280D02*
Y333D01*
X1085Y375D01*
Y460D01*
X1133Y508D01*
Y540D01*
X860Y700D02*
X939D01*
X760Y600D02*
X860Y700D01*
X751Y600D02*
X760D01*
X721Y620D02*
X751Y650D01*
X675Y620D02*
X721D01*
X646Y591D02*
X675Y620D01*
X609Y591D02*
X646D01*
X523D02*
X609D01*
X487Y555D02*
X523Y591D01*
X545Y613D02*
Y707D01*
X523Y591D02*
X545Y613D01*
X475Y702D02*
X540D01*
X545Y763D02*
X620D01*
X620Y707D02*
X743D01*
X751Y700D01*
X620Y763D02*
X738D01*
X751Y750D01*
X517Y800D02*
X751D01*
X475Y758D02*
X517Y800D01*
X265Y585D02*
X343D01*
X373Y555D01*
X715Y950D02*
X751D01*
X685Y980D02*
X715Y950D01*
X50Y590D02*
Y895D01*
X1133Y845D02*
X1170D01*
X1190Y825D01*
X685Y482D02*
X712D01*
X750Y520D01*
X939Y800D02*
X1030D01*
X1045Y815D01*
X1103D01*
X1133Y785D01*
X940Y395D02*
X987D01*
X939Y700D02*
X1010D01*
X1020Y690D01*
X373Y437D02*
Y555D01*
X623Y850D02*
X751D01*
X569Y310D02*
X605D01*
X534Y275D02*
X569Y310D01*
X540Y925D02*
X572D01*
X520Y945D02*
X540Y925D01*
X1125Y393D02*
X1188D01*
X1133Y615D02*
X1180D01*
X1190Y625D01*
X1155Y480D02*
Y485D01*
X1133Y508D02*
X1155Y485D01*
X987Y460D02*
X1015D01*
X957Y490D02*
X987Y460D01*
X55Y895D02*
X240D01*
X325Y980D01*
X685D01*
X50Y590D02*
X160D01*
X265Y485D01*
D22*
D03*
Y385D02*
D03*
Y585D02*
D03*
X609Y449D02*
D03*
Y591D02*
D03*
X751Y449D02*
D03*
X355Y740D02*
D03*
Y940D02*
D03*
X255Y840D02*
D03*
D23*
X1115Y965D02*
D03*
D24*
X1290Y365D02*
D03*
X375Y435D02*
D03*
D25*
X1190Y825D02*
D03*
X750Y520D02*
D03*
X1020Y690D02*
D03*
X935Y400D02*
D03*
X605Y310D02*
D03*
X520Y945D02*
D03*
X1190Y625D02*
D03*
Y395D02*
D03*
D26*
X1015Y460D02*
D03*
X1155Y480D02*
D03*
M02*
