M48
;Layer_Color=9474304
;FILE_FORMAT=2:3
INCH,TZ
;TYPE=PLATED
T1F00S00C0.016
T2F00S00C0.020
T3F00S00C0.028
T4F00S00C0.030
%
T01
X1015Y460
X1155Y480
T02
X605Y310
X750Y520
X935Y400
X1190Y395
Y625
Y825
X1115Y965
X1020Y690
X520Y945
T03
X375Y435
X1290Y365
T04
X265Y385
Y485
Y585
X355Y740
Y940
X255Y840
X609Y591
Y449
X751
M30
