%FSLAX23Y23*%
%MOIN*%
G70*
G01*
G75*
G04 Layer_Color=16711935*
G04:AMPARAMS|DCode=10|XSize=71mil|YSize=118mil|CornerRadius=0mil|HoleSize=0mil|Usage=FLASHONLY|Rotation=0.000|XOffset=0mil|YOffset=0mil|HoleType=Round|Shape=Octagon|*
%AMOCTAGOND10*
4,1,8,-0.018,0.059,0.018,0.059,0.035,0.041,0.035,-0.041,0.018,-0.059,-0.018,-0.059,-0.035,-0.041,-0.035,0.041,-0.018,0.059,0.0*
%
%ADD10OCTAGOND10*%

%ADD11R,0.020X0.047*%
%ADD12R,0.020X0.063*%
%ADD13R,0.031X0.035*%
%ADD14R,0.035X0.031*%
%ADD15R,0.051X0.106*%
%ADD16R,0.091X0.091*%
%ADD17R,0.106X0.051*%
%ADD18R,0.059X0.118*%
%ADD19R,0.039X0.118*%
%ADD20O,0.087X0.024*%
%ADD21C,0.010*%
%ADD22C,0.060*%
%ADD23C,0.039*%
%ADD24C,0.050*%
%ADD25C,0.031*%
%ADD26C,0.024*%
%ADD27C,0.010*%
%ADD28C,0.008*%
G04:AMPARAMS|DCode=29|XSize=79mil|YSize=126mil|CornerRadius=0mil|HoleSize=0mil|Usage=FLASHONLY|Rotation=0.000|XOffset=0mil|YOffset=0mil|HoleType=Round|Shape=Octagon|*
%AMOCTAGOND29*
4,1,8,-0.020,0.063,0.020,0.063,0.039,0.043,0.039,-0.043,0.020,-0.063,-0.020,-0.063,-0.039,-0.043,-0.039,0.043,-0.020,0.063,0.0*
%
%ADD29OCTAGOND29*%

%ADD30R,0.028X0.055*%
%ADD31R,0.028X0.071*%
%ADD32R,0.039X0.043*%
%ADD33R,0.043X0.039*%
%ADD34R,0.059X0.114*%
%ADD35R,0.099X0.099*%
%ADD36R,0.114X0.059*%
%ADD37R,0.067X0.126*%
%ADD38R,0.047X0.126*%
%ADD39O,0.095X0.032*%
%ADD40C,0.068*%
%ADD41C,0.047*%
%ADD42C,0.058*%
%ADD43C,0.039*%
%ADD44C,0.032*%
D40*
X265Y485D02*
D03*
Y385D02*
D03*
Y585D02*
D03*
X609Y449D02*
D03*
Y591D02*
D03*
X751Y449D02*
D03*
X355Y740D02*
D03*
Y940D02*
D03*
X255Y840D02*
D03*
D41*
X1115Y965D02*
D03*
D42*
X1290Y365D02*
D03*
X375Y435D02*
D03*
D43*
X1190Y825D02*
D03*
X750Y520D02*
D03*
X1020Y690D02*
D03*
X935Y400D02*
D03*
X605Y310D02*
D03*
X520Y945D02*
D03*
X1190Y625D02*
D03*
Y395D02*
D03*
D44*
X1015Y460D02*
D03*
X1155Y480D02*
D03*
M02*
