%FSLAX23Y23*%
%MOIN*%
G70*
G01*
G75*
G04 Layer_Physical_Order=2*
G04 Layer_Color=16711680*
G04:AMPARAMS|DCode=10|XSize=71mil|YSize=118mil|CornerRadius=0mil|HoleSize=0mil|Usage=FLASHONLY|Rotation=0.000|XOffset=0mil|YOffset=0mil|HoleType=Round|Shape=Octagon|*
%AMOCTAGOND10*
4,1,8,-0.018,0.059,0.018,0.059,0.035,0.041,0.035,-0.041,0.018,-0.059,-0.018,-0.059,-0.035,-0.041,-0.035,0.041,-0.018,0.059,0.0*
%
%ADD10OCTAGOND10*%

%ADD11R,0.020X0.047*%
%ADD12R,0.020X0.063*%
%ADD13R,0.031X0.035*%
%ADD14R,0.035X0.031*%
%ADD15R,0.051X0.106*%
%ADD16R,0.091X0.091*%
%ADD17R,0.106X0.051*%
%ADD18R,0.059X0.118*%
%ADD19R,0.039X0.118*%
%ADD20O,0.087X0.024*%
%ADD21C,0.010*%
%ADD22C,0.060*%
%ADD23C,0.039*%
%ADD24C,0.050*%
%ADD25C,0.031*%
%ADD26C,0.024*%
G36*
X1400Y-65D02*
X1395Y-70D01*
X1390Y-65D01*
X-50D01*
X-55Y1105D01*
X-40Y1120D01*
X1400D01*
Y-65D01*
D02*
G37*
%LPC*%
G36*
X1365Y1071D02*
X0D01*
X-8Y1068D01*
X-11Y1060D01*
Y0D01*
X-8Y-8D01*
X0Y-11D01*
X1365D01*
X1373Y-8D01*
X1376Y-0D01*
X1376Y-0D01*
X1376Y0D01*
Y0D01*
Y1060D01*
X1373Y1068D01*
X1365Y1071D01*
D02*
G37*
%LPD*%
G36*
X1354Y11D02*
X11D01*
Y1049D01*
X1354D01*
Y11D01*
D02*
G37*
%LPC*%
G36*
X106Y548D02*
X68Y533D01*
X52Y495D01*
X68Y457D01*
X106Y442D01*
X143Y457D01*
X159Y495D01*
X143Y533D01*
X106Y548D01*
D02*
G37*
G36*
X1291Y538D02*
X1253Y523D01*
X1237Y485D01*
X1253Y447D01*
X1291Y432D01*
X1328Y447D01*
X1344Y485D01*
X1328Y523D01*
X1291Y538D01*
D02*
G37*
G36*
X1020Y712D02*
X1004Y706D01*
X998Y690D01*
X1004Y674D01*
X1009Y672D01*
Y644D01*
X882Y518D01*
X879Y510D01*
X879Y510D01*
Y445D01*
X879Y445D01*
X882Y437D01*
X904Y415D01*
X902Y411D01*
X762D01*
X761Y416D01*
X777Y423D01*
X789Y449D01*
X777Y476D01*
X751Y487D01*
X724Y476D01*
X713Y449D01*
X724Y423D01*
X740Y416D01*
X739Y411D01*
X621D01*
X620Y416D01*
X636Y423D01*
X647Y449D01*
X636Y476D01*
X609Y487D01*
X583Y476D01*
X571Y449D01*
X583Y423D01*
X599Y416D01*
X598Y411D01*
X414D01*
X402Y423D01*
X407Y435D01*
X398Y458D01*
X375Y467D01*
X352Y458D01*
X343Y435D01*
X352Y412D01*
X375Y403D01*
X387Y408D01*
X402Y392D01*
X402Y392D01*
X405Y391D01*
X410Y389D01*
X410Y389D01*
X917D01*
X919Y384D01*
X935Y378D01*
X951Y384D01*
X957Y400D01*
X951Y416D01*
X935Y422D01*
X930Y420D01*
X901Y449D01*
Y506D01*
X1028Y632D01*
X1028Y632D01*
X1029Y635D01*
X1031Y640D01*
X1031Y640D01*
Y672D01*
X1036Y674D01*
X1042Y690D01*
X1036Y706D01*
X1020Y712D01*
D02*
G37*
G36*
X265Y523D02*
X238Y512D01*
X227Y485D01*
X238Y458D01*
X265Y447D01*
X292Y458D01*
X303Y485D01*
X292Y512D01*
X265Y523D01*
D02*
G37*
G36*
X1031Y455D02*
X1020D01*
Y444D01*
X1028Y447D01*
X1031Y455D01*
D02*
G37*
G36*
X1010D02*
X999D01*
X1002Y447D01*
X1010Y444D01*
Y455D01*
D02*
G37*
G36*
X260Y380D02*
X229D01*
X238Y358D01*
X260Y349D01*
Y380D01*
D02*
G37*
G36*
X186Y96D02*
X161Y86D01*
X150Y60D01*
X161Y34D01*
X186Y24D01*
X212Y34D01*
X223Y60D01*
X212Y86D01*
X186Y96D01*
D02*
G37*
G36*
X1196Y91D02*
X1171Y81D01*
X1160Y55D01*
X1171Y29D01*
X1196Y19D01*
X1222Y29D01*
X1233Y55D01*
X1222Y81D01*
X1196Y91D01*
D02*
G37*
G36*
X270Y421D02*
Y390D01*
X301D01*
X292Y412D01*
X270Y421D01*
D02*
G37*
G36*
X260D02*
X238Y412D01*
X229Y390D01*
X260D01*
Y421D01*
D02*
G37*
G36*
X301Y380D02*
X270D01*
Y349D01*
X292Y358D01*
X301Y380D01*
D02*
G37*
G36*
X1171Y475D02*
X1160D01*
Y464D01*
X1168Y467D01*
X1171Y475D01*
D02*
G37*
G36*
X1115Y992D02*
X1096Y984D01*
X1088Y965D01*
X1096Y946D01*
X1115Y938D01*
X1120Y940D01*
X1209Y851D01*
Y844D01*
X1205Y841D01*
X1190Y847D01*
X1185Y845D01*
X1178Y853D01*
X1170Y856D01*
X1170Y856D01*
X915D01*
X907Y853D01*
X907Y853D01*
X852Y798D01*
X849Y790D01*
X849Y790D01*
Y634D01*
X755Y540D01*
X750Y542D01*
X734Y536D01*
X728Y520D01*
X734Y504D01*
X750Y498D01*
X766Y504D01*
X772Y520D01*
X770Y525D01*
X868Y622D01*
X868Y622D01*
X869Y625D01*
X871Y630D01*
X871Y630D01*
Y786D01*
X919Y834D01*
X1166D01*
X1170Y830D01*
X1168Y825D01*
X1174Y809D01*
X1190Y803D01*
X1205Y809D01*
X1209Y806D01*
Y644D01*
X1205Y641D01*
X1190Y647D01*
X1174Y641D01*
X1168Y625D01*
X1174Y609D01*
X1179Y607D01*
Y413D01*
X1174Y411D01*
X1168Y395D01*
X1174Y379D01*
X1190Y373D01*
X1206Y379D01*
X1212Y395D01*
X1206Y411D01*
X1201Y413D01*
Y606D01*
X1205Y609D01*
X1209Y606D01*
Y435D01*
X1209Y435D01*
X1209Y435D01*
Y430D01*
X1212Y422D01*
X1220Y419D01*
X1220Y419D01*
X1263Y377D01*
X1258Y365D01*
X1267Y342D01*
X1290Y333D01*
X1313Y342D01*
X1322Y365D01*
X1313Y388D01*
X1290Y397D01*
X1278Y392D01*
X1231Y439D01*
Y855D01*
X1228Y863D01*
X1228Y863D01*
X1137Y953D01*
X1142Y965D01*
X1134Y984D01*
X1115Y992D01*
D02*
G37*
G36*
X255Y878D02*
X228Y867D01*
X217Y840D01*
X228Y813D01*
X255Y802D01*
X282Y813D01*
X293Y840D01*
X282Y867D01*
X255Y878D01*
D02*
G37*
G36*
X355Y778D02*
X328Y767D01*
X317Y740D01*
X328Y713D01*
X355Y702D01*
X382Y713D01*
X393Y740D01*
X382Y767D01*
X355Y778D01*
D02*
G37*
G36*
Y978D02*
X328Y967D01*
X317Y940D01*
X328Y913D01*
X355Y902D01*
X382Y913D01*
X393Y940D01*
X382Y967D01*
X355Y978D01*
D02*
G37*
G36*
X520Y967D02*
X504Y961D01*
X498Y945D01*
X500Y940D01*
X381Y821D01*
X340D01*
X332Y818D01*
X332Y818D01*
X167Y653D01*
X164Y645D01*
X164Y645D01*
Y325D01*
X164Y325D01*
X167Y317D01*
X302Y182D01*
X302Y182D01*
X310Y179D01*
X600D01*
X608Y182D01*
X611Y190D01*
X611Y190D01*
X611Y190D01*
Y190D01*
Y290D01*
X621Y294D01*
X627Y310D01*
X621Y326D01*
X605Y332D01*
X589Y326D01*
X583Y310D01*
X589Y294D01*
X589Y294D01*
Y201D01*
X314D01*
X186Y329D01*
Y641D01*
X344Y799D01*
X385D01*
X385Y799D01*
X393Y802D01*
X515Y925D01*
X520Y923D01*
X536Y929D01*
X542Y945D01*
X536Y961D01*
X520Y967D01*
D02*
G37*
G36*
X1196Y991D02*
X1171Y981D01*
X1160Y955D01*
X1171Y929D01*
X1196Y919D01*
X1222Y929D01*
X1233Y955D01*
X1222Y981D01*
X1196Y991D01*
D02*
G37*
G36*
X236D02*
X211Y981D01*
X200Y955D01*
X211Y929D01*
X236Y919D01*
X262Y929D01*
X273Y955D01*
X262Y981D01*
X236Y991D01*
D02*
G37*
G36*
X609Y629D02*
X588Y620D01*
X609Y598D01*
X631Y620D01*
X609Y629D01*
D02*
G37*
G36*
X1150Y496D02*
X1142Y493D01*
X1141Y491D01*
X1035D01*
X1035Y491D01*
X1030Y489D01*
X1027Y488D01*
X1027Y488D01*
X1020Y480D01*
Y465D01*
X1035D01*
X1039Y469D01*
X1141D01*
X1142Y467D01*
X1150Y464D01*
Y480D01*
Y496D01*
D02*
G37*
G36*
X1160D02*
Y485D01*
X1171D01*
X1168Y493D01*
X1160Y496D01*
D02*
G37*
G36*
X1010Y476D02*
X1002Y473D01*
X999Y465D01*
X1010D01*
Y476D01*
D02*
G37*
G36*
X265Y623D02*
X238Y612D01*
X227Y585D01*
X238Y558D01*
X265Y547D01*
X292Y558D01*
X303Y585D01*
X292Y612D01*
X265Y623D01*
D02*
G37*
G36*
X638Y612D02*
X616Y591D01*
X638Y569D01*
X647Y591D01*
X638Y612D01*
D02*
G37*
G36*
X580D02*
X571Y591D01*
X580Y569D01*
X602Y591D01*
X580Y612D01*
D02*
G37*
G36*
X609Y584D02*
X588Y562D01*
X609Y553D01*
X631Y562D01*
X609Y584D01*
D02*
G37*
%LPD*%
D21*
X750Y520D02*
X860Y630D01*
Y790D01*
X915Y845D01*
X1170D01*
X1190Y825D01*
X1020Y640D02*
Y690D01*
X890Y510D02*
X1020Y640D01*
X890Y445D02*
Y510D01*
Y445D02*
X935Y400D01*
X375Y435D02*
X410Y400D01*
X935D01*
X385Y810D02*
X520Y945D01*
X340Y810D02*
X385D01*
X175Y645D02*
X340Y810D01*
X175Y325D02*
Y645D01*
Y325D02*
X310Y190D01*
X600D01*
Y305D01*
X1190Y395D02*
Y625D01*
X1035Y480D02*
X1155D01*
X1015Y460D02*
X1035Y480D01*
X1220Y435D02*
X1290Y365D01*
X1220Y430D02*
Y855D01*
X1115Y960D02*
X1220Y855D01*
D22*
X265Y485D02*
D03*
Y385D02*
D03*
Y585D02*
D03*
X609Y449D02*
D03*
Y591D02*
D03*
X751Y449D02*
D03*
X355Y740D02*
D03*
Y940D02*
D03*
X255Y840D02*
D03*
D23*
X1115Y965D02*
D03*
D24*
X1290Y365D02*
D03*
X375Y435D02*
D03*
D25*
X1190Y825D02*
D03*
X750Y520D02*
D03*
X1020Y690D02*
D03*
X935Y400D02*
D03*
X605Y310D02*
D03*
X520Y945D02*
D03*
X1190Y625D02*
D03*
Y395D02*
D03*
D26*
X1015Y460D02*
D03*
X1155Y480D02*
D03*
M02*
