%FSLAX23Y23*%
%MOIN*%
G70*
G01*
G75*
G04 Layer_Color=8421504*
G04:AMPARAMS|DCode=10|XSize=71mil|YSize=118mil|CornerRadius=0mil|HoleSize=0mil|Usage=FLASHONLY|Rotation=0.000|XOffset=0mil|YOffset=0mil|HoleType=Round|Shape=Octagon|*
%AMOCTAGOND10*
4,1,8,-0.018,0.059,0.018,0.059,0.035,0.041,0.035,-0.041,0.018,-0.059,-0.018,-0.059,-0.035,-0.041,-0.035,0.041,-0.018,0.059,0.0*
%
%ADD10OCTAGOND10*%

%ADD11R,0.020X0.047*%
%ADD12R,0.020X0.063*%
%ADD13R,0.031X0.035*%
%ADD14R,0.035X0.031*%
%ADD15R,0.051X0.106*%
%ADD16R,0.091X0.091*%
%ADD17R,0.106X0.051*%
%ADD18R,0.059X0.118*%
%ADD19R,0.039X0.118*%
%ADD20O,0.087X0.024*%
%ADD21C,0.010*%
%ADD22C,0.060*%
%ADD23C,0.039*%
%ADD24C,0.050*%
%ADD25C,0.031*%
%ADD26C,0.024*%
%ADD27C,0.010*%
%ADD28C,0.008*%
D10*
X970Y79D02*
D03*
D11*
X911Y177D02*
D03*
X1029D02*
D03*
D12*
X970Y169D02*
D03*
D13*
X987Y395D02*
D03*
X1043D02*
D03*
X938Y340D02*
D03*
X882D02*
D03*
X1043Y280D02*
D03*
X987D02*
D03*
X808Y370D02*
D03*
X752D02*
D03*
X1077Y540D02*
D03*
X1133D02*
D03*
X1077Y695D02*
D03*
X1133D02*
D03*
X1133Y785D02*
D03*
X1077D02*
D03*
X1077Y615D02*
D03*
X1133D02*
D03*
X567Y850D02*
D03*
X623D02*
D03*
X1077Y845D02*
D03*
X1133D02*
D03*
X572Y925D02*
D03*
X628D02*
D03*
X1308Y700D02*
D03*
X1252D02*
D03*
X1252Y960D02*
D03*
X1308D02*
D03*
X503Y435D02*
D03*
X447D02*
D03*
X1252Y795D02*
D03*
X1308D02*
D03*
X1308Y870D02*
D03*
X1252D02*
D03*
X1308Y610D02*
D03*
X1252D02*
D03*
D14*
X1120Y177D02*
D03*
Y233D02*
D03*
X620Y763D02*
D03*
Y707D02*
D03*
X545Y707D02*
D03*
Y763D02*
D03*
X1200Y758D02*
D03*
Y702D02*
D03*
X1040Y948D02*
D03*
Y892D02*
D03*
X1125Y393D02*
D03*
Y337D02*
D03*
X475Y702D02*
D03*
Y758D02*
D03*
X685Y538D02*
D03*
Y482D02*
D03*
D15*
X957Y490D02*
D03*
X843D02*
D03*
X487Y555D02*
D03*
X373D02*
D03*
X93Y170D02*
D03*
X207D02*
D03*
D16*
X775Y254D02*
D03*
Y76D02*
D03*
D17*
X135Y838D02*
D03*
Y952D02*
D03*
X1250Y267D02*
D03*
Y153D02*
D03*
D18*
X290Y78D02*
D03*
X620D02*
D03*
D19*
X376Y275D02*
D03*
X455D02*
D03*
X534D02*
D03*
D20*
X939Y600D02*
D03*
Y650D02*
D03*
Y700D02*
D03*
Y750D02*
D03*
Y800D02*
D03*
Y850D02*
D03*
Y900D02*
D03*
Y950D02*
D03*
X751Y600D02*
D03*
Y650D02*
D03*
Y700D02*
D03*
Y750D02*
D03*
Y800D02*
D03*
Y850D02*
D03*
Y900D02*
D03*
Y950D02*
D03*
M02*
